<svg width="1200" height="1600" viewBox="0 0 1200 1600" fill="none" xmlns="http://www.w3.org/2000/svg">
<g filter="url(#filter0_d_16_375)">
<text fill="#FF6413" xml:space="preserve" style="white-space: pre" font-family="Anakotmai" font-size="40" font-weight="500" letter-spacing="0em"><tspan x="289.578" y="1496.2">&#xe1e;&#xe23;&#xe23;&#xe04;&#xe1b;&#xe23;&#xe30;&#xe0a;&#xe32;&#xe0a;&#xe19;</tspan></text>
<text fill="white" xml:space="preserve" style="white-space: pre" font-family="Anakotmai" font-size="40" font-weight="500" letter-spacing="0em"><tspan x="411.961" y="1400.2">8 &#xe01;&#xe38;&#xe21;&#xe20;&#xe32;&#10;</tspan><tspan x="363.562" y="1448.2">&#xe01;&#xe32; 2 &#xe43;&#xe1a; &#xe43;&#xe2b;&#xe49;&#10;</tspan></text>
</g>
<rect x="566.05" y="1364.05" width="137.9" height="137.9" fill="#DE9AE7" stroke="black" stroke-width="2.1"/>
<rect x="706.05" y="1364.05" width="137.9" height="137.9" fill="white" stroke="black" stroke-width="2.1"/>
<path d="M740 1398.7L810 1468.7M810 1398.7L740 1468.7" stroke="black" stroke-width="11.2" stroke-linecap="round"/>
<text fill="black" xml:space="preserve" style="white-space: pre" font-family="Anakotmai" font-size="84" font-weight="bold" letter-spacing="0em"><tspan x="584.131" y="1461.52">46</tspan></text>
<text fill="white" xml:space="preserve" style="white-space: pre" font-family="Anakotmai" font-size="24" font-weight="500" letter-spacing="0em"><tspan x="576.281" y="1533.42">&#xe40;&#xe25;&#xe37;&#xe2d;&#xe01;&#xe1a;&#xe31;&#xe0d;&#xe0a;&#xe35;&#xe23;&#xe32;&#xe22;&#xe0a;&#xe37;&#xe48;&#xe2d;&#xe40;&#xe1a;&#xe2d;&#xe23;&#xe4c; 46</tspan></text>
<rect x="882.05" y="1364.05" width="137.9" height="137.9" fill="#6EE18B" stroke="black" stroke-width="2.1"/>
<rect x="1022.05" y="1364.05" width="137.9" height="137.9" fill="white" stroke="black" stroke-width="2.1"/>
<path d="M1056 1398.7L1126 1468.7M1126 1398.7L1056 1468.7" stroke="black" stroke-width="11.2" stroke-linecap="round"/>
<path d="M912.241 1399.06H925.094L948.1 1438.92L940.431 1452.21L910.999 1401.24L912.241 1399.06Z" fill="black"/>
<path d="M949.403 1467.77L943.007 1456.65L966.012 1416.79H981.349L951.917 1467.77H949.403Z" fill="black"/>
<path d="M990.321 1401.24L983.925 1412.35H937.883L930.215 1399.06H989.079L990.321 1401.24Z" fill="black"/>
<text fill="white" xml:space="preserve" style="white-space: pre" font-family="Anakotmai" font-size="24" font-weight="500" letter-spacing="0em"><tspan x="868.34" y="1533.42"> &#xe40;&#xe25;&#xe37;&#xe2d;&#xe01; &#xe2a;.&#xe2a;. &#xe40;&#xe02;&#xe15;&#xe1e;&#xe23;&#xe23;&#xe04;&#xe1b;&#xe23;&#xe30;&#xe0a;&#xe32;&#xe0a;&#xe19;</tspan></text>
<path d="M948.956 32H958.858L976.58 62.7073L970.673 72.943L948 33.6741L948.956 32Z" fill="#FF6413"/>
<path d="M977.584 84.9246L972.657 76.363L990.379 45.6558H1002.19L979.521 84.9246H977.584Z" fill="#FF6413"/>
<path d="M1009.1 33.6741L1004.18 42.2358H968.71L962.803 32H1008.15L1009.1 33.6741Z" fill="#FF6413"/>
<path d="M1059.02 64.7123H1061.99V62.2638C1061.99 60.359 1063.46 59.6817 1065.85 59.6817H1067.23V57.0996H1065.85C1063.81 57.0996 1062.83 57.5066 1062.04 58.5687H1061.95V56.5558C1061.95 54.3807 1063.48 52.9657 1065.87 52.9657C1068.27 52.9657 1069.74 54.3807 1069.74 56.5558V64.7155H1072.73V56.5558C1072.73 52.8575 1070.03 50.3804 1065.88 50.3804C1061.72 50.3804 1059.02 52.8544 1059.02 56.5558V64.7155L1059.02 64.7123Z" fill="white"/>
<path d="M1050.38 64.9856C1054.11 64.9856 1056.26 63.3543 1056.26 60.6609C1056.26 57.6686 1054.11 56.934 1051.06 56.3362C1048.34 55.7924 1047.5 55.3567 1047.5 54.4059C1047.5 53.4011 1048.61 52.9082 1050 52.9082C1051.69 52.9082 1053.02 53.6428 1053.1 55.0546H1056.25C1056.12 52.145 1053.51 50.377 1050.24 50.377C1047.25 50.377 1044.53 51.792 1044.53 54.6222C1044.53 57.6399 1047.25 58.4317 1050.41 59.0296C1052.61 59.4366 1053.29 59.7641 1053.29 60.7149C1053.29 61.9392 1051.99 62.4544 1050.44 62.4544C1048.45 62.4544 1047.17 61.5831 1047.17 60.3079H1044.02C1044.16 63.2175 1046.85 64.9856 1050.39 64.9856" fill="white"/>
<path d="M1035.99 64.9856C1039.72 64.9856 1041.86 63.3543 1041.86 60.6609C1041.86 57.6686 1039.72 56.934 1036.67 56.3362C1033.95 55.7924 1033.1 55.3567 1033.1 54.4059C1033.1 53.4011 1034.22 52.9082 1035.61 52.9082C1037.29 52.9082 1038.63 53.6428 1038.71 55.0546H1041.86C1041.72 52.145 1039.11 50.377 1035.85 50.377C1032.86 50.377 1030.14 51.792 1030.14 54.6222C1030.14 57.6399 1032.86 58.4317 1036.01 59.0296C1038.22 59.4366 1038.9 59.7641 1038.9 60.7149C1038.9 61.9392 1037.59 62.4544 1036.04 62.4544C1034.06 62.4544 1032.78 61.5831 1032.78 60.3079H1029.62C1029.76 63.2175 1032.45 64.9856 1035.99 64.9856Z" fill="white"/>
<path d="M1012.52 64.7119H1015.24L1018.62 54.4566H1018.67L1022.04 64.7119H1024.77L1028.03 50.6216H1025.04L1023.08 59.9515H1022.97L1019.98 50.6216H1017.31L1014.32 59.9515H1014.21L1012.25 50.6216H1009.26L1012.52 64.7119Z" fill="white"/>
<path d="M1107.19 53.8082V52.1069H1104.49V56.0246H1111.88V53.8082H1107.19Z" fill="white"/>
<path d="M1107.19 60.8136V59.1123H1104.49V63.03H1111.88V60.8136H1107.19Z" fill="white"/>
<path d="M1160.63 65.0875C1162.56 65.0875 1164.33 64.461 1165.29 63.0173H1165.37V64.8172H1168.26V50.6982H1165.26V58.4668C1165.26 60.8391 1163.84 62.4735 1161.34 62.4735C1159.08 62.4735 1157.74 61.138 1157.74 58.4668V50.6982H1154.74V58.7403C1154.74 62.8551 1156.98 65.0906 1160.63 65.0906" fill="white"/>
<path d="M1122.78 56.0815H1126.01V62.4827C1126.01 63.7706 1124.97 64.8136 1123.68 64.8136H1113.58V50.6343H1116.59V62.5241H1122.77C1122.87 62.5241 1122.95 62.4446 1122.95 62.3492V58.6286H1118.19V56.0847H1119.69L1122.81 50.6375H1126.07L1122.78 56.0847V56.0815Z" fill="white"/>
<path d="M1149.44 56.0815H1152.67V62.4827C1152.67 63.7706 1151.62 64.8136 1150.34 64.8136H1140.23V50.6343H1143.25V62.5241H1149.43C1149.53 62.5241 1149.6 62.4446 1149.6 62.3492V58.6286H1144.85V56.0847H1146.35L1149.47 50.6375H1152.72L1149.44 56.0847V56.0815Z" fill="white"/>
<path d="M1088 47V60.8931C1088 63.0587 1086.24 64.8172 1084.07 64.8172H1079.33C1077.16 64.8172 1075.4 63.0619 1075.4 60.8931V50.6378H1078.45V60.7659C1078.45 61.4401 1079 61.987 1079.67 61.987H1083.67C1084.35 61.987 1084.89 61.4401 1084.89 60.7659V47.0032H1088V47Z" fill="white"/>
<path d="M1135.21 64.8141H1138.26V55.6654C1138.26 52.5013 1136.36 50.4058 1132.58 50.4058C1129.08 50.4058 1127.1 52.6921 1127.02 55.4778H1129.95C1130.07 54.0309 1130.95 52.9243 1132.58 52.9243C1134.45 52.9243 1135.21 54.0659 1135.21 55.9738V64.8172V64.8141Z" fill="white"/>
<path d="M1096.48 64.9983C1100.2 64.9983 1102.35 63.367 1102.35 60.6736C1102.35 57.6812 1100.2 56.9467 1097.16 56.3488C1094.44 55.8051 1093.59 55.3694 1093.59 54.4186C1093.59 53.4138 1094.71 52.9209 1096.09 52.9209C1097.78 52.9209 1099.11 53.6554 1099.19 55.0673H1102.35C1102.21 52.1577 1099.6 50.3896 1096.34 50.3896C1093.35 50.3896 1090.63 51.8047 1090.63 54.6349C1090.63 57.6526 1093.35 58.4444 1096.5 59.0423C1098.71 59.4493 1099.39 59.7768 1099.39 60.7276C1099.39 61.9519 1098.09 62.4671 1096.53 62.4671C1094.55 62.4671 1093.27 61.5957 1093.27 60.3206H1090.12C1090.25 63.2302 1092.95 64.9983 1096.48 64.9983" fill="white"/>
<text opacity="0.4" fill="white" xml:space="preserve" style="white-space: pre" font-family="Google Sans" font-size="16" font-weight="500" letter-spacing="0em"><tspan x="151.016" y="1579.44">&#xe2a;&#xe37;&#xe48;&#xe2d;&#xe2b;&#xe32;&#xe40;&#xe2a;&#xe35;&#xe22;&#xe07;&#xe2d;&#xe34;&#xe40;&#xe25;&#xe47;&#xe01;&#xe17;&#xe23;&#xe2d;&#xe19;&#xe34;&#xe01;&#xe2a;&#xe4c;&#xe19;&#xe35;&#xe49;&#xe1c;&#xe25;&#xe34;&#xe15;&#xe42;&#xe14;&#xe22; &#xe1e;&#xe23;&#xe23;&#xe04;&#xe1b;&#xe23;&#xe30;&#xe0a;&#xe32;&#xe0a;&#xe19; &#xe17;&#xe35;&#xe48;&#xe2d;&#xe22;&#xe39;&#xe48; 167 &#xe0a;&#xe31;&#xe49;&#xe19; 4 &#xe0b;&#xe2d;&#xe22;&#xe23;&#xe32;&#xe21;&#xe04;&#xe33;&#xe41;&#xe2b;&#xe07; 42 &#xe41;&#xe02;&#xe27;&#xe07;&#xe2b;&#xe31;&#xe27;&#xe2b;&#xe21;&#xe32;&#xe01; &#xe40;&#xe02;&#xe15;&#xe1a;&#xe32;&#xe07;&#xe01;&#xe30;&#xe1b;&#xe34; &#xe01;&#xe17;&#xe21;. &#xe08;&#xe33;&#xe19;&#xe27;&#xe19; 1 &#xe0a;&#xe34;&#xe49;&#xe19; &#xe27;&#xe31;&#xe19;&#xe40;&#xe14;&#xe37;&#xe2d;&#xe19;&#xe1b;&#xe35;&#xe17;&#xe35;&#xe48;&#xe1c;&#xe25;&#xe34;&#xe15;&#xe15;&#xe32;&#xe21;&#xe17;&#xe35;&#xe48;&#xe1b;&#xe23;&#xe32;&#xe01;&#xe0e;</tspan></text>
<defs>
<filter id="filter0_d_16_375" x="274.938" y="1363.2" width="284.421" height="157.2" filterUnits="userSpaceOnUse" color-interpolation-filters="sRGB">
<feFlood flood-opacity="0" result="BackgroundImageFix"/>
<feColorMatrix in="SourceAlpha" type="matrix" values="0 0 0 0 0 0 0 0 0 0 0 0 0 0 0 0 0 0 127 0" result="hardAlpha"/>
<feOffset dy="8"/>
<feGaussianBlur stdDeviation="8"/>
<feComposite in2="hardAlpha" operator="out"/>
<feColorMatrix type="matrix" values="0 0 0 0 0 0 0 0 0 0 0 0 0 0 0 0 0 0 1 0"/>
<feBlend mode="normal" in2="BackgroundImageFix" result="effect1_dropShadow_16_375"/>
<feBlend mode="normal" in="SourceGraphic" in2="effect1_dropShadow_16_375" result="shape"/>
</filter>
</defs>
</svg>
